REM DIRINDEX 1\2,1\3
REM DIRNAME folder01,folder02,folder03
TITLE ""
FILE "Disc2Track02.mp3" MP3
  TRACK 01 AUDIO
    TITLE "0:"
    INDEX 01 00:00:00
  TRACK 02 AUDIO
    TITLE "3:cjc116_1752"
    INDEX 01 00:00:09
  TRACK 03 AUDIO
    TITLE "0:"
    INDEX 01 00:01:69
  TRACK 04 AUDIO
    TITLE "2:cjc116_1753"
    INDEX 01 00:02:49
  TRACK 05 AUDIO
    TITLE "0:"
    INDEX 01 00:03:37
  TRACK 06 AUDIO
    TITLE "2:cjc116_1754"
    INDEX 01 00:03:61
  TRACK 07 AUDIO
    TITLE "0:"
    INDEX 01 00:07:56
  TRACK 08 AUDIO
    TITLE "2:cjc116_1755"
    INDEX 01 00:08:21
  TRACK 09 AUDIO
    TITLE "0:"
    INDEX 01 00:09:30
  TRACK 10 AUDIO
    TITLE "2:cjc116_1756"
    INDEX 01 00:09:42
  TRACK 11 AUDIO
    TITLE "0:"
    INDEX 01 00:15:34
  TRACK 12 AUDIO
    TITLE "2:cjc116_1757"
    INDEX 01 00:16:00
  TRACK 13 AUDIO
    TITLE "0:"
    INDEX 01 00:16:73
  TRACK 14 AUDIO
    TITLE "2:cjc116_1758"
    INDEX 01 00:17:14
  TRACK 15 AUDIO
    TITLE "0:"
    INDEX 01 00:21:11
  TRACK 16 AUDIO
    TITLE "2:cjc116_1759"
    INDEX 01 00:21:51
  TRACK 17 AUDIO
    TITLE "0:"
    INDEX 01 00:22:54
  TRACK 18 AUDIO
    TITLE "2:cjc116_1760"
    INDEX 01 00:22:70
  TRACK 19 AUDIO
    TITLE "0:"
    INDEX 01 00:27:63
  TRACK 20 AUDIO
    TITLE "2:cjc116_1761"
    INDEX 01 00:28:31
  TRACK 21 AUDIO
    TITLE "0:"
    INDEX 01 00:29:13
  TRACK 22 AUDIO
    TITLE "2:cjc116_1762"
    INDEX 01 00:29:31
  TRACK 23 AUDIO
    TITLE "0:"
    INDEX 01 00:33:24
  TRACK 24 AUDIO
    TITLE "2:cjc116_1763"
    INDEX 01 00:33:64
  TRACK 25 AUDIO
    TITLE "0:"
    INDEX 01 00:34:65
  TRACK 26 AUDIO
    TITLE "2:cjc116_1764"
    INDEX 01 00:35:12
  TRACK 27 AUDIO
    TITLE "0:"
    INDEX 01 00:39:70
  TRACK 28 AUDIO
    TITLE "2:cjc116_1765"
    INDEX 01 00:40:38
  TRACK 29 AUDIO
    TITLE "0:"
    INDEX 01 00:41:40
  TRACK 30 AUDIO
    TITLE "2:cjc116_1766"
    INDEX 01 00:41:59
  TRACK 31 AUDIO
    TITLE "0:"
    INDEX 01 00:45:16
  TRACK 32 AUDIO
    TITLE "2:cjc116_1767"
    INDEX 01 00:45:57
  TRACK 33 AUDIO
    TITLE "0:"
    INDEX 01 00:46:47
  TRACK 34 AUDIO
    TITLE "2:cjc116_1768"
    INDEX 01 00:46:70
  TRACK 35 AUDIO
    TITLE "0:"
    INDEX 01 00:51:03
  TRACK 36 AUDIO
    TITLE "2:cjc116_1769"
    INDEX 01 00:51:58
  TRACK 37 AUDIO
    TITLE "0:"
    INDEX 01 00:52:55
  TRACK 38 AUDIO
    TITLE "2:cjc116_1770"
    INDEX 01 00:52:65
  TRACK 39 AUDIO
    TITLE "0:"
    INDEX 01 00:57:35
  TRACK 40 AUDIO
    TITLE "2:cjc116_1771"
    INDEX 01 00:58:07
  TRACK 41 AUDIO
    TITLE "0:"
    INDEX 01 00:59:08
  TRACK 42 AUDIO
    TITLE "2:cjc116_1772"
    INDEX 01 00:59:24
  TRACK 43 AUDIO
    TITLE "0:"
    INDEX 01 01:03:26
  TRACK 44 AUDIO
    TITLE "2:cjc116_1773"
    INDEX 01 01:03:65
  TRACK 45 AUDIO
    TITLE "0:"
    INDEX 01 01:05:03
  TRACK 46 AUDIO
    TITLE "2:cjc116_1774"
    INDEX 01 01:05:17
  TRACK 47 AUDIO
    TITLE "0:"
    INDEX 01 01:09:12
  TRACK 48 AUDIO
    TITLE "2:cjc116_1775"
    INDEX 01 01:09:57
  TRACK 49 AUDIO
    TITLE "0:"
    INDEX 01 01:10:73
  TRACK 50 AUDIO
    TITLE "2:cjc116_1776"
    INDEX 01 01:11:13
  TRACK 51 AUDIO
    TITLE "0:"
    INDEX 01 01:15:68
  TRACK 52 AUDIO
    TITLE "2:cjc116_1777"
    INDEX 01 01:16:36
  TRACK 53 AUDIO
    TITLE "0:"
    INDEX 01 01:17:49
  TRACK 54 AUDIO
    TITLE "2:cjc116_1778"
    INDEX 01 01:17:65
  TRACK 55 AUDIO
    TITLE "0:"
    INDEX 01 01:22:29
  TRACK 56 AUDIO
    TITLE "2:cjc116_1779"
    INDEX 01 01:22:72
  TRACK 57 AUDIO
    TITLE "0:"
    INDEX 01 01:24:10
  TRACK 58 AUDIO
    TITLE "2:cjc116_1780"
    INDEX 01 01:24:24
  TRACK 59 AUDIO
    TITLE "0:"
    INDEX 01 01:27:59
  TRACK 60 AUDIO
    TITLE "2:cjc116_1781"
    INDEX 01 01:28:25
  TRACK 61 AUDIO
    TITLE "0:"
    INDEX 01 01:29:21
  TRACK 62 AUDIO
    TITLE "2:cjc116_1782"
    INDEX 01 01:29:39
  TRACK 63 AUDIO
    TITLE "0:"
    INDEX 01 01:33:58
  TRACK 64 AUDIO
    TITLE "2:cjc116_1783"
    INDEX 01 01:34:28
  TRACK 65 AUDIO
    TITLE "0:"
    INDEX 01 01:35:37
  TRACK 66 AUDIO
    TITLE "2:cjc116_1784"
    INDEX 01 01:35:53
  TRACK 67 AUDIO
    TITLE "0:"
    INDEX 01 01:39:57
  TRACK 68 AUDIO
    TITLE "2:cjc116_1785"
    INDEX 01 01:40:25
  TRACK 69 AUDIO
    TITLE "0:"
    INDEX 01 01:41:20
  TRACK 70 AUDIO
    TITLE "2:cjc116_1786"
    INDEX 01 01:41:36
  TRACK 71 AUDIO
    TITLE "0:"
    INDEX 01 01:46:47
  TRACK 72 AUDIO
    TITLE "2:cjc116_1787"
    INDEX 01 01:47:17
  TRACK 73 AUDIO
    TITLE "0:"
    INDEX 01 01:48:30
  TRACK 74 AUDIO
    TITLE "2:cjc116_1788"
    INDEX 01 01:48:48
  TRACK 75 AUDIO
    TITLE "0:"
    INDEX 01 01:53:04
  TRACK 76 AUDIO
    TITLE "2:cjc116_1789"
    INDEX 01 01:53:45
  TRACK 77 AUDIO
    TITLE "0:"
    INDEX 01 01:54:62
  TRACK 78 AUDIO
    TITLE "2:cjc116_1790"
    INDEX 01 01:54:74
  TRACK 79 AUDIO
    TITLE "0:"
    INDEX 01 01:58:56
  TRACK 80 AUDIO
    TITLE "2:cjc116_1791"
    INDEX 01 01:59:24
  TRACK 81 AUDIO
    TITLE "0:"
    INDEX 01 02:00:27
  TRACK 82 AUDIO
    TITLE "2:cjc116_1792"
    INDEX 01 02:00:41
  TRACK 83 AUDIO
    TITLE "0:"
    INDEX 01 02:05:05
  TRACK 84 AUDIO
    TITLE "2:cjc116_1793"
    INDEX 01 02:05:46
  TRACK 85 AUDIO
    TITLE "0:"
    INDEX 01 02:06:54
  TRACK 86 AUDIO
    TITLE "2:cjc116_1794"
    INDEX 01 02:06:71
  TRACK 87 AUDIO
    TITLE "0:"
    INDEX 01 02:10:30
  TRACK 88 AUDIO
    TITLE "2:cjc116_1795"
    INDEX 01 02:10:65
  TRACK 89 AUDIO
    TITLE "0:"
    INDEX 01 02:12:17
  TRACK 90 AUDIO
    TITLE "2:cjc116_1796"
    INDEX 01 02:12:33
  TRACK 91 AUDIO
    TITLE "0:"
    INDEX 01 02:16:62
  TRACK 92 AUDIO
    TITLE "2:cjc116_1797"
    INDEX 01 02:17:45
  TRACK 93 AUDIO
    TITLE "0:"
    INDEX 01 02:18:51
  TRACK 94 AUDIO
    TITLE "2:cjc116_1798"
    INDEX 01 02:18:68
  TRACK 95 AUDIO
    TITLE "0:"
    INDEX 01 02:22:47
  TRACK 96 AUDIO
    TITLE "2:cjc116_1799"
    INDEX 01 02:23:15
  TRACK 97 AUDIO
    TITLE "0:"
    INDEX 01 02:24:34
  TRACK 98 AUDIO
    TITLE "2:cjc116_1800"
    INDEX 01 02:24:49
  TRACK 99 AUDIO
    TITLE "0:"
    INDEX 01 02:28:24
  TRACK 100 AUDIO
    TITLE "2:cjc116_1801"
    INDEX 01 02:28:69
  TRACK 101 AUDIO
    TITLE "0:"
    INDEX 01 02:30:01
  TRACK 102 AUDIO
    TITLE "2:cjc116_1802"
    INDEX 01 02:30:19
  TRACK 103 AUDIO
    TITLE "0:"
    INDEX 01 02:35:47
  TRACK 104 AUDIO
    TITLE "2:cjc116_1803"
    INDEX 01 02:36:19
  TRACK 105 AUDIO
    TITLE "0:"
    INDEX 01 02:37:19
  TRACK 106 AUDIO
    TITLE "2:cjc116_1804"
    INDEX 01 02:37:33
  TRACK 107 AUDIO
    TITLE "0:"
    INDEX 01 02:41:52
  TRACK 108 AUDIO
    TITLE "2:cjc116_1805"
    INDEX 01 02:42:24
  TRACK 109 AUDIO
    TITLE "0:"
    INDEX 01 02:43:21
  TRACK 110 AUDIO
    TITLE "2:cjc116_1806"
    INDEX 01 02:43:35
  TRACK 111 AUDIO
    TITLE "0:"
    INDEX 01 02:48:01
  TRACK 112 AUDIO
    TITLE "2:cjc116_1807"
    INDEX 01 02:48:46
  TRACK 113 AUDIO
    TITLE "0:"
    INDEX 01 02:49:53
  TRACK 114 AUDIO
    TITLE "2:cjc116_1808"
    INDEX 01 02:49:69
  TRACK 115 AUDIO
    TITLE "0:"
    INDEX 01 02:53:45
  TRACK 116 AUDIO
    TITLE "2:cjc116_1809"
    INDEX 01 02:54:15
  TRACK 117 AUDIO
    TITLE "0:"
    INDEX 01 02:55:23
  TRACK 118 AUDIO
    TITLE "2:cjc116_1810"
    INDEX 01 02:55:36
  TRACK 119 AUDIO
    TITLE "0:"
    INDEX 01 02:59:65
  TRACK 120 AUDIO
    TITLE "2:cjc116_1811"
    INDEX 01 03:00:36
  TRACK 121 AUDIO
    TITLE "0:"
    INDEX 01 03:01:43
  TRACK 122 AUDIO
    TITLE "2:cjc116_1812"
    INDEX 01 03:01:62
  TRACK 123 AUDIO
    TITLE "0:"
    INDEX 01 03:06:64
  TRACK 124 AUDIO
    TITLE "2:cjc116_1813"
    INDEX 01 03:07:26
  TRACK 125 AUDIO
    TITLE "0:"
    INDEX 01 03:08:21
  TRACK 126 AUDIO
    TITLE "2:cjc116_1814"
    INDEX 01 03:08:35
  TRACK 127 AUDIO
    TITLE "0:"
    INDEX 01 03:12:15
  TRACK 128 AUDIO
    TITLE "2:cjc116_1815"
    INDEX 01 03:12:54
  TRACK 129 AUDIO
    TITLE "0:"
    INDEX 01 03:13:58
  TRACK 130 AUDIO
    TITLE "2:cjc116_1816"
    INDEX 01 03:13:73
  TRACK 131 AUDIO
    TITLE "0:"
    INDEX 01 03:18:16
  TRACK 132 AUDIO
    TITLE "2:cjc116_1817"
    INDEX 01 03:18:67
  TRACK 133 AUDIO
    TITLE "0:"
    INDEX 01 03:19:70
  TRACK 134 AUDIO
    TITLE "2:cjc116_1818"
    INDEX 01 03:20:05
  TRACK 135 AUDIO
    TITLE "0:"
    INDEX 01 03:25:32
